# xmcd
#
# Track frame offsets: 
#        150
#        19569
#        40316
#        57498
#
# Disc length: 995 seconds
#
# Revision: 3
# Processed by: cddbd v1.5.2PL0 Copyright (c) Steve Scherf et al.
# Submitted via: ExactAudioCopy v1.3
#
DISCID=2c03e104
DTITLE=NEWS - TEPPEN
DYEAR=2005
DGENRE=JPop
TTITLE0=TEPPEN
TTITLE1=夢の数だけ愛が生まれる
TTITLE2=NANDE×2 DAME
TTITLE3=Fiesta
EXTD=YEAR: 2005
EXTT0=
EXTT1=
EXTT2=
EXTT3=
PLAYORDER=
